<svg width="16" height="21" viewBox="0 0 16 21" fill="none" xmlns="http://www.w3.org/2000/svg">
<path d="M6.96899 20.75C3.24899 20.75 0.218994 17.72 0.218994 14V8C0.218994 3.73 3.69899 0.25 7.96899 0.25C12.239 0.25 15.719 3.73 15.719 8V13.5C15.7164 14.6264 15.2677 15.7058 14.4713 16.5023C13.6748 17.2987 12.5954 17.7474 11.469 17.75C10.3426 17.7474 9.26317 17.2987 8.46671 16.5023C7.67025 15.7058 7.22163 14.6264 7.21899 13.5V10C7.21899 9.59 7.55899 9.25 7.96899 9.25C8.37899 9.25 8.71899 9.59 8.71899 10V13.5C8.71899 15.02 9.94899 16.25 11.469 16.25C12.989 16.25 14.219 15.02 14.219 13.5V8C14.219 4.55 11.419 1.75 7.96899 1.75C4.51899 1.75 1.71899 4.55 1.71899 8V14C1.71899 16.89 4.06899 19.25 6.96899 19.25C7.16791 19.25 7.35867 19.329 7.49932 19.4697C7.63998 19.6103 7.71899 19.8011 7.71899 20C7.71899 20.1989 7.63998 20.3897 7.49932 20.5303C7.35867 20.671 7.16791 20.75 6.96899 20.75Z" fill="black"/>
</svg>
