<svg width="46" height="46" viewBox="0 0 46 46" fill="none" xmlns="http://www.w3.org/2000/svg">
<rect x="1" y="0.999756" width="44" height="44" rx="10" fill="#1B1B19"/>
<path d="M14.5 28.9998V17.9998C14.5 13.9998 15.5 12.9998 19.5 12.9998H26.5C30.5 12.9998 31.5 13.9998 31.5 17.9998V27.9998C31.5 28.1398 31.5 28.2798 31.49 28.4198" stroke="white" stroke-width="1.5" stroke-linecap="round" stroke-linejoin="round"/>
<path d="M19 17.9998H27M19 21.4998H24M17.35 25.9998H31.5V29.4998C31.5 31.4298 29.93 32.9998 28 32.9998H18C16.07 32.9998 14.5 31.4298 14.5 29.4998V28.8498C14.5 27.2798 15.78 25.9998 17.35 25.9998Z" stroke="white" stroke-width="1.5" stroke-linecap="round" stroke-linejoin="round"/>
<rect x="1" y="0.999756" width="44" height="44" rx="10" stroke="white" stroke-width="0.5"/>
</svg>
