<svg width="44" height="44" viewBox="0 0 44 44" fill="none" xmlns="http://www.w3.org/2000/svg">
<rect x="0.5" y="0.499756" width="43" height="43" rx="9.5" fill="white"/>
<g clip-path="url(#clip0_76_248)">
<path d="M18.424 10.9885L11.956 16.0354C10.876 16.8765 10 18.667 10 20.0248V28.9291C10 31.7169 12.268 34 15.052 34H28.948C31.732 34 34 31.7169 34 28.9411V20.1931C34 18.7391 33.028 16.8765 31.84 16.0474L24.424 10.8443C22.744 9.66664 20.044 9.72673 18.424 10.9885ZM22 29.1934V25.5885V29.1934Z" fill="#1C1C1C"/>
<path d="M22 29.1934V25.5885M18.424 10.9885L11.956 16.0354C10.876 16.8765 10 18.667 10 20.0248V28.9291C10 31.7169 12.268 34 15.052 34H28.948C31.732 34 34 31.7169 34 28.9411V20.1931C34 18.7391 33.028 16.8765 31.84 16.0474L24.424 10.8443C22.744 9.66664 20.044 9.72673 18.424 10.9885Z" stroke="white" stroke-width="1.5" stroke-linecap="round" stroke-linejoin="round"/>
</g>
<rect x="0.5" y="0.499756" width="43" height="43" rx="9.5" stroke="#050503"/>
<defs>
<clipPath id="clip0_76_248">
<rect width="24" height="24" fill="white" transform="translate(10 9.99976)"/>
</clipPath>
</defs>
</svg>
