<svg width="24" height="24" viewBox="0 0 24 24" fill="none" xmlns="http://www.w3.org/2000/svg">
<rect width="24" height="24" rx="5" fill="#1C1C1C" fill-opacity="0.8"/>
<path d="M8.62999 11.681C8.63001 11.491 8.70003 11.301 8.85004 11.151C8.99119 11.0115 9.18163 10.9333 9.38006 10.9333C9.57849 10.9333 9.76891 11.0116 9.91004 11.1511L11.9399 13.1812L13.97 11.1514C14.1112 11.012 14.3016 10.9338 14.5001 10.9338C14.6985 10.9338 14.8889 11.012 15.03 11.1515C15.32 11.4415 15.32 11.9215 15.0299 12.2115L12.4697 14.7713C12.1797 15.0613 11.6997 15.0612 11.4097 14.7712L8.84995 12.211C8.69996 12.071 8.62998 11.871 8.62999 11.681Z" fill="white"/>
<path d="M11.1897 14.1699L11.1906 3.99987C11.1906 3.58987 11.5307 3.2499 11.9407 3.24993C12.3507 3.24997 12.6906 3.59 12.6906 4L12.6897 14.17C12.6897 14.58 12.3496 14.92 11.9396 14.9199C11.5296 14.9199 11.1897 14.5799 11.1897 14.1699Z" fill="white"/>
<path d="M3.24993 11.9992C3.24997 11.5892 3.59 11.2492 4 11.2493C4.41 11.2493 4.74997 11.5893 4.74993 11.9993C4.74956 16.2693 7.7293 19.2496 11.9993 19.25C16.2693 19.2503 19.2496 16.2706 19.2499 12.0006C19.25 11.5906 19.59 11.2506 20 11.2507C20.41 11.2507 20.75 11.5907 20.7499 12.0007C20.7495 17.1507 17.1492 20.7504 11.9992 20.75C6.84917 20.7495 3.24948 17.1492 3.24993 11.9992Z" fill="white"/>
</svg>
