<svg width="46" height="46" viewBox="0 0 46 46" fill="none" xmlns="http://www.w3.org/2000/svg">
<rect x="1" y="0.999756" width="44" height="44" rx="10" fill="#1A1A18"/>
<path d="M19 12.9998V15.9998M27 12.9998V15.9998M14.5 20.0898H31.5M32 19.4998V27.9998C32 30.9998 30.5 32.9998 27 32.9998H19C15.5 32.9998 14 30.9998 14 27.9998V19.4998C14 16.4998 15.5 14.4998 19 14.4998H27C30.5 14.4998 32 16.4998 32 19.4998Z" stroke="white" stroke-width="1.5" stroke-miterlimit="10" stroke-linecap="round" stroke-linejoin="round"/>
<path d="M26.6949 24.6997H26.7039M26.6949 27.6997H26.7039M22.9949 24.6997H23.0049M22.9949 27.6997H23.0049M19.2939 24.6997H19.3039M19.2939 27.6997H19.3039" stroke="white" stroke-width="2" stroke-linecap="round" stroke-linejoin="round"/>
<rect x="1" y="0.999756" width="44" height="44" rx="10" stroke="white" stroke-width="0.5"/>
</svg>
