<svg width="18" height="18" viewBox="0 0 18 18" fill="none" xmlns="http://www.w3.org/2000/svg">
<path d="M17.0864 7.30966H16.3922V7.27427H8.62745V10.7253H13.504C12.7912 12.7338 10.8804 14.1762 8.62745 14.1762C5.76792 14.1762 3.45098 11.8593 3.45098 8.99977C3.45098 6.14024 5.76792 3.82329 8.62745 3.82329C9.94684 3.82329 11.1483 4.32038 12.0616 5.13426L14.5015 2.69431C12.9614 1.25865 10.9006 0.372314 8.62745 0.372314C3.86213 0.372314 0 4.23445 0 8.99977C0 13.7651 3.86213 17.6272 8.62745 17.6272C13.3928 17.6272 17.2549 13.7651 17.2549 8.99977C17.2549 8.42179 17.1959 7.8573 17.0864 7.30966Z" fill="white"/>
<path d="M0.995117 4.98429L3.83105 7.06364C4.59775 5.16459 6.45468 3.82329 8.62839 3.82329C9.94778 3.82329 11.1492 4.32038 12.0625 5.13426L14.5025 2.69431C12.9623 1.25865 10.9015 0.372314 8.62839 0.372314C5.3139 0.372314 2.44089 2.24272 0.995117 4.98429Z" fill="white"/>
<path d="M8.62577 17.6276C10.8534 17.6276 12.8788 16.775 14.4105 15.3882L11.7397 13.1286C10.8736 13.784 9.79688 14.1767 8.62577 14.1767C6.38128 14.1767 4.47718 12.7461 3.75934 10.7493L0.945312 12.9162C2.37255 15.7101 5.27252 17.6276 8.62577 17.6276Z" fill="white"/>
<path d="M17.0849 7.30956H16.3907V7.27417H8.62598V10.7252H13.5025C13.1604 11.6907 12.5387 12.5214 11.7383 13.128H11.7399L14.4107 15.3877C14.222 15.5579 17.2534 13.3134 17.2534 8.99966C17.2534 8.42169 17.1945 7.8572 17.0849 7.30956Z" fill="white"/>
</svg>
