<svg width="146" height="37" viewBox="0 0 146 37" fill="none" xmlns="http://www.w3.org/2000/svg">
<path d="M49.9173 32.3761V28.9961H46.9297V32.3761H49.9173Z" fill="white"/>
<path d="M54.0753 14.6109V10.2058H58.8729C62.1222 10.2058 64.3467 8.33037 64.3467 5.10287C64.3467 1.8536 62.1222 0 58.8729 0H51.72V14.6109H54.0753ZM58.6546 2.11528C60.8573 2.11528 61.9914 2.94399 61.9914 5.10287C61.9914 7.26181 60.8573 8.09052 58.6546 8.09052H54.0753V2.11528H58.6546ZM71.2933 14.829C74.9135 14.829 77.3339 12.5392 77.3339 9.20268C77.3339 5.82254 74.9135 3.55456 71.2933 3.55456C67.695 3.55456 65.2746 5.82254 65.2746 9.20268C65.2746 12.5392 67.695 14.829 71.2933 14.829ZM71.2933 12.7355C68.6765 12.7355 67.5861 11.4924 67.5861 9.20268C67.5861 6.8911 68.6765 5.62629 71.2933 5.62629C73.932 5.62629 75.0224 6.8911 75.0224 9.20268C75.0224 11.4924 73.932 12.7355 71.2933 12.7355ZM81.3985 2.50783V0H79.0432V2.50783H81.3985ZM81.3985 14.6109V3.77264H79.0432V14.6109H81.3985ZM85.9346 14.6109V9.24628C85.9346 6.89109 87.0031 5.6699 89.3797 5.6699C91.6261 5.6699 92.542 6.69484 92.542 8.72292V14.6109H94.8973V8.09052C94.8973 5.58263 93.4141 3.55456 90.405 3.55456C87.6569 3.55456 86.218 5.29917 85.8908 7.131H85.7382V3.77264H83.5793V14.6109H85.9346ZM104.105 14.6109V12.4956H102.142C100.79 12.4956 100.18 12.1467 100.18 10.8164V5.73533H104.105V3.77264H100.18V1.39567H97.8465V3.77264H96.0142V5.73533H97.8465V10.9472C97.8465 13.5859 99.2854 14.6109 101.619 14.6109H104.105ZM107.933 14.6109V0H105.578V14.6109H107.933ZM115.566 14.829C118.794 14.829 121.061 13.237 121.061 10.9255V10.7292H118.707V10.9036C118.707 12.1903 117.769 12.9317 115.5 12.9317C112.993 12.9317 111.968 11.8195 111.881 9.72604H121.083C121.149 9.39893 121.171 9.09364 121.171 8.70109C121.171 5.40821 118.881 3.55456 115.522 3.55456C111.99 3.55456 109.678 5.82254 109.678 9.20268C109.678 12.8227 112.012 14.829 115.566 14.829ZM115.479 5.40821C117.791 5.40821 118.946 6.36773 118.946 8.37397V8.41763H111.903C112.033 6.47677 113.08 5.40821 115.479 5.40821ZM128.059 14.829C131.112 14.829 133.119 13.6295 133.119 11.6015C133.119 9.8133 131.941 8.941 129.368 8.61388L126.86 8.26494C125.224 8.04686 124.788 7.74157 124.788 6.89109C124.788 5.86614 125.486 5.42999 127.471 5.42999C129.869 5.42999 130.524 6.10605 130.524 7.39268V7.52349H132.857V7.45806C132.857 4.8848 130.851 3.55456 127.536 3.55456C124.2 3.55456 122.477 4.90662 122.477 6.80388C122.477 8.61388 123.72 9.48619 125.769 9.74787L128.735 10.1404C130.283 10.3584 130.807 10.642 130.807 11.536C130.807 12.4956 130.175 12.9317 128.059 12.9317C125.791 12.9317 124.941 12.4738 124.941 11.0563V10.8819H122.586V10.9472C122.586 13.4551 124.57 14.829 128.059 14.829ZM139.943 14.829C142.996 14.829 145.002 13.6295 145.002 11.6015C145.002 9.8133 143.824 8.941 141.251 8.61388L138.743 8.26494C137.108 8.04686 136.672 7.74157 136.672 6.89109C136.672 5.86614 137.369 5.42999 139.354 5.42999C141.753 5.42999 142.407 6.10605 142.407 7.39268V7.52349H144.74V7.45806C144.74 4.8848 142.734 3.55456 139.419 3.55456C136.083 3.55456 134.36 4.90662 134.36 6.80388C134.36 8.61388 135.603 9.48619 137.653 9.74787L140.618 10.1404C142.167 10.3584 142.69 10.642 142.69 11.536C142.69 12.4956 142.058 12.9317 139.943 12.9317C137.674 12.9317 136.824 12.4738 136.824 11.0563V10.8819H134.469V10.9472C134.469 13.4551 136.453 14.829 139.943 14.829ZM54.8167 32.5942C56.8886 32.5942 58.3493 31.46 59.0037 30.0206L59.1126 30.0425V32.3759H59.9633V25.5284C59.9633 23.2822 58.7422 21.4504 55.9508 21.4504C53.3121 21.4504 51.72 23.2604 51.72 25.3539V25.5066H52.6796V25.3321C52.6796 23.2604 53.8789 22.3227 55.9071 22.3227C58.0441 22.3227 59.0474 23.3258 59.0474 25.5502V26.3353L55.2527 26.8369C52.8976 27.1204 51.3711 27.8836 51.3711 29.8242C51.3711 31.6127 52.8322 32.5942 54.8167 32.5942ZM52.3306 29.7591C52.3306 28.3853 53.2247 27.8836 55.1876 27.6439L59.0474 27.1204V27.6872C59.0474 30.4785 57.1063 31.7434 55.0131 31.7434C53.2684 31.7434 52.3306 31.0891 52.3306 29.7591ZM66.864 32.5942C69.3939 32.5942 71.3126 30.8494 71.3126 28.3634V28.2326H70.353V28.3415C70.353 30.4353 69.0667 31.6997 66.8422 31.6997C64.2253 31.6997 62.9385 29.8679 62.9385 27.0115C62.9385 24.1763 64.2253 22.3445 66.8422 22.3445C69.0667 22.3445 70.353 23.6093 70.353 25.7028V25.8117H71.3126V25.681C71.3126 23.195 69.3939 21.4504 66.864 21.4504C63.8763 21.4504 61.9789 23.8274 61.9789 27.0115C61.9789 30.217 63.8763 32.5942 66.864 32.5942ZM76.3472 32.5942C78.4191 32.5942 79.8799 31.46 80.5342 30.0206L80.6431 30.0425V32.3759H81.4938V25.5284C81.4938 23.2822 80.2727 21.4504 77.4813 21.4504C74.8427 21.4504 73.2506 23.2604 73.2506 25.3539V25.5066H74.2102V25.3321C74.2102 23.2604 75.4095 22.3227 77.4376 22.3227C79.5746 22.3227 80.578 23.3258 80.578 25.5502V26.3353L76.7833 26.8369C74.428 27.1204 72.9015 27.8836 72.9015 29.8242C72.9015 31.6127 74.3628 32.5942 76.3472 32.5942ZM73.8611 29.7591C73.8611 28.3853 74.7551 27.8836 76.7176 27.6439L80.578 27.1204V27.6872C80.578 30.4785 78.6369 31.7434 76.5436 31.7434C74.7989 31.7434 73.8611 31.0891 73.8611 29.7591ZM88.1763 32.5942C90.2263 32.5942 91.6438 31.46 92.1018 29.9336H92.1674V32.3759H93.0176V17.765H92.058V24.0237C91.5782 22.6498 90.1606 21.4504 88.1544 21.4504C85.1891 21.4504 83.5095 23.6311 83.5095 27.0115C83.5095 30.4134 85.1891 32.5942 88.1763 32.5942ZM84.4691 27.0115C84.4691 23.2604 86.2794 22.3227 88.307 22.3227C90.4227 22.3227 92.058 23.6093 92.058 26.117V27.9055C92.058 30.4353 90.4227 31.7215 88.2638 31.7215C86.2357 31.7215 84.4691 30.7838 84.4691 27.0115ZM99.9585 32.5942C102.553 32.5942 104.385 30.9146 104.385 28.9302V28.7994H103.426V28.9302C103.426 30.4566 102.248 31.6997 99.9585 31.6997C97.2979 31.6997 96.0986 30.0206 96.0111 27.3819H104.363C104.429 27.1204 104.473 26.7062 104.473 26.2696C104.473 22.8897 102.248 21.4504 99.8928 21.4504C96.927 21.4504 95.0734 23.8274 95.0734 27.0115C95.0734 30.217 96.84 32.5942 99.9585 32.5942ZM99.8928 22.3009C102.052 22.3009 103.644 23.4785 103.535 26.5968H96.0111C96.0986 24.0018 97.3198 22.3009 99.8928 22.3009ZM107.586 32.3759V26.3353C107.586 23.5439 108.872 22.3227 111.119 22.3227C113.278 22.3227 114.259 23.5221 114.259 26.117V32.3759H115.24V26.3353C115.24 23.5439 116.483 22.3227 118.642 22.3227C120.888 22.3227 121.913 23.5221 121.913 26.117V32.3759H122.895V25.943C122.895 23.304 121.586 21.4504 118.86 21.4504C116.44 21.4504 115.48 22.9115 115.065 24.2199H115.022C114.542 22.5407 113.365 21.4504 111.358 21.4504C108.938 21.4504 107.913 22.9551 107.542 24.1327H107.455V21.6685H106.626V32.3759H107.586ZM126.099 36.0831C126.905 36.0831 127.886 35.8434 128.475 34.4259L133.862 21.6685H132.815L130.154 28.167L128.977 31.0672H128.89L127.647 28.167L124.856 21.6685H123.83L128.432 32.2889L127.647 34.0768C127.276 34.9489 126.949 35.1891 125.924 35.1891H124.877V35.9523C125.139 36.018 125.641 36.0831 126.099 36.0831Z" fill="white"/>
<path d="M21.8818 8.08495V0H13.7969V8.08495H21.8818Z" fill="white"/>
<path d="M8.08495 13.791H0V21.8759H8.08495V13.791Z" fill="white"/>
<path d="M35.667 13.791H27.582V21.8759H35.667V13.791Z" fill="white"/>
<path d="M13.797 8.07913L8.08015 2.3623L2.36328 8.07913L8.0801 13.796L13.797 8.07913Z" fill="white"/>
<path d="M27.5802 2.36719L21.8633 8.08401L27.5802 13.8008L33.297 8.08401L27.5802 2.36719Z" fill="white"/>
<path d="M13.793 27.5879V35.6728H21.8779V27.5879H13.793Z" fill="white"/>
<path d="M8.06838 21.8633L2.35156 27.5801L8.06838 33.297L13.7853 27.5802L8.06838 21.8633Z" fill="white"/>
<path d="M33.3125 27.5752L27.5957 21.8584L21.8789 27.5753L27.5957 33.2921L33.3125 27.5752Z" fill="white"/>
<path d="M21.8818 8.08495V0H13.7969V8.08495H21.8818Z" fill="white"/>
<path d="M8.08495 13.791H0V21.8759H8.08495V13.791Z" fill="white"/>
<path d="M35.667 13.791H27.582V21.8759H35.667V13.791Z" fill="white"/>
<path d="M13.797 8.07913L8.08015 2.3623L2.36328 8.07913L8.0801 13.796L13.797 8.07913Z" fill="white"/>
<path d="M27.5802 2.36719L21.8633 8.08401L27.5802 13.8008L33.297 8.08401L27.5802 2.36719Z" fill="white"/>
<path d="M13.793 27.5879V35.6728H21.8779V27.5879H13.793Z" fill="white"/>
<path d="M8.06838 21.8633L2.35156 27.5801L8.06838 33.297L13.7853 27.5802L8.06838 21.8633Z" fill="white"/>
<path d="M33.3125 27.5752L27.5957 21.8584L21.8789 27.5753L27.5957 33.2921L33.3125 27.5752Z" fill="white"/>
</svg>
