<svg width="24" height="24" viewBox="0 0 24 24" fill="none" xmlns="http://www.w3.org/2000/svg">
<path d="M22 21.9998L20 19.9998M11.5 20.9998C12.7476 20.9998 13.9829 20.754 15.1355 20.2766C16.2881 19.7992 17.3354 19.0994 18.2175 18.2173C19.0997 17.3351 19.7994 16.2878 20.2769 15.1352C20.7543 13.9827 21 12.7473 21 11.4998C21 10.2522 20.7543 9.01686 20.2769 7.86426C19.7994 6.71167 19.0997 5.6644 18.2175 4.78224C17.3354 3.90008 16.2881 3.20032 15.1355 2.7229C13.9829 2.24548 12.7476 1.99976 11.5 1.99976C8.98044 1.99976 6.56408 3.00065 4.78249 4.78224C3.00089 6.56384 2 8.9802 2 11.4998C2 14.0193 3.00089 16.4357 4.78249 18.2173C6.56408 19.9989 8.98044 20.9998 11.5 20.9998Z" stroke="white" stroke-width="1.5" stroke-linecap="round" stroke-linejoin="round"/>
</svg>
